<svg width="130" height="55" viewBox="0 0 130 55" fill="none" xmlns="http://www.w3.org/2000/svg">
<path d="M8.84473 27.8149H12.666V15.8682C12.666 15.5602 12.631 15.3153 12.561 15.1333C12.491 14.9513 12.3931 14.8114 12.2671 14.7134C12.1411 14.6014 11.9871 14.5314 11.8052 14.5034C11.6372 14.4614 11.4482 14.4404 11.2383 14.4404C10.9303 14.4404 10.5454 14.4894 10.0835 14.5874C9.63558 14.6854 9.15967 14.8324 8.65576 15.0283C8.15186 15.2243 7.64095 15.4692 7.12305 15.7632C6.61914 16.0431 6.16423 16.3651 5.7583 16.729C5.36637 17.0929 5.04443 17.4989 4.79248 17.9468C4.54053 18.3947 4.41455 18.8776 4.41455 19.3955C4.41455 19.8434 4.47054 20.2004 4.58252 20.4663C4.7085 20.7323 4.84847 20.9352 5.00244 21.0752C5.15641 21.2012 5.31038 21.2852 5.46436 21.3271C5.63232 21.3551 5.7513 21.3691 5.82129 21.3691C6.17122 21.3691 6.45817 21.3132 6.68213 21.2012C6.90609 21.0752 7.10905 20.9492 7.29102 20.8232C7.47298 20.6833 7.64095 20.5573 7.79492 20.4453C7.96289 20.3193 8.15186 20.2563 8.36182 20.2563C8.52979 20.2563 8.70475 20.2983 8.88672 20.3823C9.08268 20.4523 9.25765 20.5713 9.41162 20.7393C9.57959 20.9072 9.71956 21.1312 9.83154 21.4111C9.94352 21.6771 9.99951 22.006 9.99951 22.3979C9.99951 22.9578 9.88753 23.4408 9.66357 23.8467C9.45361 24.2526 9.17367 24.5955 8.82373 24.8755C8.48779 25.1414 8.09587 25.3444 7.64795 25.4844C7.21403 25.6104 6.78011 25.6733 6.34619 25.6733C5.67432 25.6733 5.06543 25.5614 4.51953 25.3374C3.98763 25.0994 3.53271 24.7775 3.15479 24.3716C2.77686 23.9657 2.48991 23.4897 2.29395 22.9438C2.09798 22.3979 2 21.8171 2 21.2012C2 20.2354 2.17497 19.3535 2.5249 18.5557C2.87484 17.7438 3.35075 17.016 3.95264 16.3721C4.56852 15.7282 5.28239 15.1683 6.09424 14.6924C6.92008 14.2025 7.80892 13.7965 8.76074 13.4746C9.71257 13.1527 10.7064 12.9147 11.7422 12.7607C12.778 12.5928 13.8138 12.5088 14.8496 12.5088C15.9974 12.5088 16.8862 12.6208 17.5161 12.8447C18.16 13.0547 18.6289 13.3136 18.9229 13.6216C19.2308 13.9295 19.4128 14.2515 19.4688 14.5874C19.5247 14.9233 19.5527 15.2033 19.5527 15.4272V27.8149H27.2793V17.7158C27.2793 15.4062 27.5802 13.4396 28.1821 11.8159C28.784 10.1922 29.5609 8.86947 30.5127 7.84766C31.4645 6.81185 32.5283 6.06299 33.7041 5.60107C34.8799 5.12516 36.0487 4.88721 37.2104 4.88721C38.0083 4.88721 38.7642 4.9502 39.478 5.07617C40.2059 5.18815 40.8358 5.36312 41.3677 5.60107C41.9136 5.83903 42.3475 6.13997 42.6694 6.50391C42.9914 6.85384 43.1523 7.26676 43.1523 7.74268C43.1523 7.95264 43.1174 8.1556 43.0474 8.35156C42.9914 8.53353 42.9074 8.7015 42.7954 8.85547C42.6834 9.00944 42.5505 9.13542 42.3965 9.2334C42.2565 9.31738 42.1095 9.35938 41.9556 9.35938C41.7036 9.35938 41.4797 9.28239 41.2837 9.12842C41.0877 8.97445 40.8988 8.78548 40.7168 8.56152C40.5488 8.32357 40.3809 8.07161 40.2129 7.80566C40.0449 7.52572 39.856 7.27376 39.646 7.0498C39.436 6.81185 39.1981 6.61589 38.9321 6.46191C38.6662 6.30794 38.3512 6.23096 37.9873 6.23096C37.1335 6.23096 36.4546 6.46891 35.9507 6.94482C35.4468 7.40674 35.0618 8.09261 34.7959 9.00244C34.5299 9.89827 34.355 11.0181 34.271 12.3618C34.201 13.7056 34.166 15.2453 34.166 16.981V27.8149H38.3862V29.6626H34.166V42.4282C34.166 42.8341 34.25 43.1631 34.418 43.415C34.5999 43.653 34.8729 43.772 35.2368 43.772C35.6287 43.772 35.9927 43.702 36.3286 43.562C36.6646 43.422 36.9585 43.2891 37.2104 43.1631L37.5674 43.9399C37.2594 44.1499 36.8955 44.3669 36.4756 44.5908C36.0697 44.8288 35.6147 45.0457 35.1108 45.2417C34.6209 45.4517 34.089 45.6196 33.5151 45.7456C32.9552 45.8856 32.3674 45.9556 31.7515 45.9556C30.7996 45.9556 30.0298 45.8296 29.4419 45.5776C28.854 45.3257 28.3991 44.9897 28.0771 44.5698C27.7552 44.1639 27.5382 43.702 27.4263 43.1841C27.3283 42.6662 27.2793 42.1413 27.2793 41.6094V29.6626H19.5527V40.1187C19.5527 42.0223 19.2028 43.681 18.5029 45.0947C17.8171 46.5085 16.8722 47.6842 15.6685 48.6221C14.4647 49.5739 13.0439 50.2808 11.4062 50.7427C9.78255 51.2186 8.03988 51.4565 6.17822 51.4565C5.46436 51.4565 4.77848 51.3936 4.12061 51.2676C3.46273 51.1556 2.88184 50.9946 2.37793 50.7847C1.87402 50.5747 1.4751 50.3228 1.18115 50.0288C0.87321 49.7489 0.719238 49.4409 0.719238 49.105C0.719238 48.853 0.754232 48.5941 0.824219 48.3281C0.894206 48.0762 0.999186 47.8452 1.13916 47.6353C1.27913 47.4253 1.4541 47.2503 1.66406 47.1104C1.86003 46.9704 2.08398 46.9004 2.33594 46.9004C2.48991 46.9004 2.62288 46.9774 2.73486 47.1313C2.86084 47.2853 2.98682 47.4743 3.11279 47.6982C3.23877 47.9362 3.37874 48.1882 3.53271 48.4541C3.70068 48.7201 3.91064 48.965 4.1626 49.189C4.42855 49.4269 4.74349 49.6229 5.10742 49.7769C5.47135 49.9308 5.92627 50.0078 6.47217 50.0078C7.54997 50.0078 8.4738 49.8118 9.24365 49.4199C10.0275 49.028 10.6714 48.4751 11.1753 47.7612C11.6792 47.0474 12.0501 46.1935 12.2881 45.1997C12.54 44.2199 12.666 43.1421 12.666 41.9663V29.6626H8.84473V27.8149ZM58.6475 25.4004C58.6475 27.9619 58.3955 30.4395 57.8916 32.833C57.4017 35.2126 56.7158 37.4521 55.834 39.5518C54.9661 41.6374 53.9303 43.541 52.7266 45.2627C51.5228 46.9984 50.214 48.4821 48.8003 49.7139C47.3866 50.9456 45.8888 51.9045 44.3071 52.5903C42.7394 53.2762 41.1507 53.6191 39.541 53.6191C38.3092 53.6191 37.3574 53.4092 36.6855 52.9893C36.0137 52.5833 35.6777 52.0304 35.6777 51.3306C35.6777 51.0646 35.7197 50.8057 35.8037 50.5537C35.8877 50.3018 35.9997 50.0778 36.1396 49.8818C36.2796 49.6859 36.4476 49.5249 36.6436 49.3989C36.8395 49.2869 37.0495 49.231 37.2734 49.231C37.5394 49.231 37.7633 49.3639 37.9453 49.6299C38.1133 49.8958 38.2952 50.1828 38.4912 50.4907C38.6872 50.8127 38.9251 51.1066 39.2051 51.3726C39.485 51.6385 39.87 51.7715 40.3599 51.7715C40.9897 51.7715 41.6476 51.6595 42.3335 51.4355C43.0194 51.2256 43.7052 50.9176 44.3911 50.5117C45.091 50.1058 45.7839 49.6089 46.4697 49.021C47.1696 48.4471 47.8555 47.8032 48.5273 47.0894C48.1354 45.6756 47.6805 44.1359 47.1626 42.4702C46.6587 40.7905 46.1198 39.1038 45.5459 37.4102C44.986 35.7165 44.4051 34.0858 43.8032 32.5181C43.2153 30.9364 42.6344 29.5366 42.0605 28.3188C41.5007 27.1011 40.9548 26.1283 40.4229 25.4004C39.9049 24.6585 39.443 24.2876 39.0371 24.2876C38.7712 24.2876 38.5682 24.3296 38.4282 24.4136C38.2743 24.4976 38.0993 24.6165 37.9033 24.7705L37.4834 24.2456C37.7633 24.0076 38.0573 23.7627 38.3652 23.5107C38.6732 23.2588 39.0371 23.0278 39.457 22.8179C39.877 22.6079 40.3669 22.4399 40.9268 22.314C41.4867 22.174 42.1585 22.104 42.9424 22.104C43.7962 22.104 44.5871 22.3 45.3149 22.6919C46.0568 23.0698 46.7287 23.7767 47.3306 24.8125C47.7645 25.5824 48.2124 26.5062 48.6743 27.584C49.1502 28.6618 49.6261 29.8656 50.1021 31.1953C50.578 32.5251 51.0539 33.9668 51.5298 35.5205C52.0197 37.0602 52.5096 38.6769 52.9995 40.3706C53.8674 38.5509 54.5672 36.6263 55.0991 34.5967C55.631 32.5531 55.897 30.4535 55.897 28.2979C55.897 27.528 55.848 26.8701 55.75 26.3242C55.652 25.7783 55.54 25.3164 55.4141 24.9385C55.2881 24.5465 55.1761 24.2176 55.0781 23.9517C54.9801 23.6717 54.9312 23.4268 54.9312 23.2168C54.9312 23.0068 55.0151 22.8319 55.1831 22.6919C55.3511 22.5379 55.554 22.4189 55.792 22.335C56.0299 22.251 56.2679 22.195 56.5059 22.167C56.7578 22.125 56.9678 22.104 57.1357 22.104C57.5137 22.104 57.8006 22.181 57.9966 22.335C58.2065 22.4889 58.3605 22.7129 58.4585 23.0068C58.5565 23.2868 58.6125 23.6297 58.6265 24.0356C58.6405 24.4416 58.6475 24.8965 58.6475 25.4004ZM62.8257 25.7993C62.8257 25.3934 62.7277 25.0435 62.5317 24.7495C62.3498 24.4416 62.0348 24.2876 61.5869 24.2876C61.349 24.2876 61.146 24.3296 60.978 24.4136C60.8101 24.4976 60.6281 24.6165 60.4321 24.7705L59.9912 24.2456C60.3132 23.9797 60.6701 23.7207 61.062 23.4688C61.4679 23.2028 61.9019 22.9718 62.3638 22.7759C62.8257 22.5799 63.3226 22.4189 63.8545 22.293C64.3864 22.167 64.9463 22.104 65.5342 22.104C66.1641 22.104 66.703 22.202 67.1509 22.3979C67.5988 22.5939 67.9697 22.8319 68.2637 23.1118C68.5716 23.3778 68.8026 23.6647 68.9565 23.9727C69.1105 24.2666 69.2015 24.5186 69.2295 24.7285C69.5094 24.3366 69.8384 23.9797 70.2163 23.6577C70.6082 23.3358 71.0282 23.0628 71.4761 22.8389C71.938 22.6009 72.4209 22.4189 72.9248 22.293C73.4427 22.167 73.9746 22.104 74.5205 22.104C75.6403 22.104 76.6551 22.335 77.5649 22.7969C78.4748 23.2588 79.2516 23.9447 79.8955 24.8545C80.5534 25.7643 81.0573 26.8911 81.4072 28.2349C81.7572 29.5786 81.9321 31.1323 81.9321 32.896C81.9321 34.9396 81.7152 36.6823 81.2812 38.124C80.8613 39.5518 80.3014 40.7205 79.6016 41.6304C78.9157 42.5402 78.1248 43.2051 77.229 43.625C76.3472 44.0309 75.4443 44.2339 74.5205 44.2339C73.7507 44.2339 73.0718 44.1569 72.4839 44.0029C71.91 43.849 71.4131 43.66 70.9932 43.436C70.5732 43.2121 70.2233 42.9881 69.9434 42.7642C69.6634 42.5262 69.4395 42.3302 69.2715 42.1763V52.4224C69.2715 52.6043 69.2435 52.8213 69.1875 53.0732C69.1315 53.3252 68.9915 53.5632 68.7676 53.7871C68.5576 54.0251 68.2357 54.228 67.8018 54.396C67.3818 54.564 66.8009 54.6479 66.0591 54.6479C65.3172 54.6479 64.7293 54.557 64.2954 54.375C63.8755 54.207 63.5535 53.9971 63.3296 53.7451C63.1056 53.5072 62.9657 53.2622 62.9097 53.0103C62.8537 52.7723 62.8257 52.5763 62.8257 52.4224V25.7993ZM69.2715 39.1738C69.2715 39.2858 69.3205 39.4818 69.4185 39.7617C69.5164 40.0417 69.6704 40.3286 69.8804 40.6226C70.0903 40.9165 70.3563 41.1825 70.6782 41.4204C71.0142 41.6444 71.4201 41.7563 71.896 41.7563C72.5119 41.7563 73.0368 41.5254 73.4707 41.0635C73.9046 40.5876 74.2616 39.9507 74.5415 39.1528C74.8215 38.341 75.0244 37.4032 75.1504 36.3394C75.2764 35.2616 75.3394 34.1138 75.3394 32.896C75.3394 31.3983 75.2554 30.1315 75.0874 29.0957C74.9334 28.0599 74.7025 27.2271 74.3945 26.5972C74.0866 25.9533 73.7157 25.4914 73.2817 25.2114C72.8618 24.9175 72.3859 24.7705 71.854 24.7705C71.5461 24.7705 71.2381 24.8615 70.9302 25.0435C70.6222 25.2114 70.3423 25.4284 70.0903 25.6943C69.8524 25.9463 69.6564 26.2332 69.5024 26.5552C69.3485 26.8771 69.2715 27.1851 69.2715 27.479V39.1738ZM91.3384 34.2607C91.3384 34.7087 91.4014 35.1986 91.5273 35.7305C91.6673 36.2484 91.8633 36.7733 92.1152 37.3052C92.3672 37.8371 92.6751 38.348 93.0391 38.8379C93.417 39.3138 93.8439 39.7407 94.3198 40.1187C94.8097 40.4966 95.3486 40.7975 95.9365 41.0215C96.5244 41.2454 97.1683 41.3574 97.8682 41.3574C98.3581 41.3574 98.813 41.3014 99.2329 41.1895C99.6528 41.0775 100.045 40.9235 100.409 40.7275C100.773 40.5316 101.123 40.3076 101.458 40.0557C101.794 39.7897 102.13 39.5098 102.466 39.2158L102.991 39.7197C102.669 40.1536 102.256 40.6296 101.752 41.1475C101.249 41.6654 100.64 42.1553 99.9258 42.6172C99.2119 43.0651 98.3791 43.443 97.4272 43.751C96.4754 44.0449 95.3906 44.1919 94.1729 44.1919C92.9551 44.1919 91.7653 43.9749 90.6035 43.541C89.4557 43.0931 88.4339 42.4282 87.5381 41.5464C86.6423 40.6646 85.9214 39.5658 85.3755 38.25C84.8436 36.9342 84.5776 35.3945 84.5776 33.6309C84.5776 32.3571 84.7386 31.1883 85.0605 30.1245C85.3825 29.0607 85.8164 28.1019 86.3623 27.248C86.9222 26.3942 87.5661 25.6453 88.2939 25.0015C89.0358 24.3576 89.8127 23.8257 90.6245 23.4058C91.4364 22.9718 92.2622 22.6499 93.1021 22.4399C93.9559 22.216 94.7747 22.104 95.5586 22.104C96.5944 22.104 97.4972 22.216 98.2671 22.4399C99.0369 22.6639 99.6738 22.9648 100.178 23.3428C100.696 23.7207 101.081 24.1616 101.333 24.6655C101.584 25.1554 101.71 25.6733 101.71 26.2192C101.71 26.8771 101.521 27.472 101.144 28.0039C100.766 28.5218 100.262 28.9767 99.6318 29.3687L91.3384 34.2607ZM95.5586 29.9985C95.7406 29.8866 95.8875 29.7816 95.9995 29.6836C96.1255 29.5716 96.2235 29.4456 96.2935 29.3057C96.3634 29.1517 96.4124 28.9697 96.4404 28.7598C96.4824 28.5358 96.5034 28.2629 96.5034 27.9409C96.5034 27.591 96.4614 27.2061 96.3774 26.7861C96.3075 26.3522 96.1815 25.9463 95.9995 25.5684C95.8175 25.1904 95.5866 24.8755 95.3066 24.6235C95.0267 24.3716 94.6908 24.2456 94.2988 24.2456C93.7949 24.2456 93.361 24.3996 92.9971 24.7075C92.6471 25.0015 92.3532 25.3864 92.1152 25.8623C91.8913 26.3382 91.7093 26.8841 91.5693 27.5C91.4434 28.1019 91.3454 28.7108 91.2754 29.3267C91.2054 29.9425 91.1634 30.5374 91.1494 31.1113C91.1354 31.6712 91.1284 32.1471 91.1284 32.5391L95.5586 29.9985Z" fill="#165550"/>
<path d="M101.037 17.9239C101.503 17.909 101.962 17.802 102.387 17.6089C102.812 17.4158 103.194 17.1405 103.512 16.7989C103.841 16.4672 104.1 16.0735 104.275 15.6407C104.45 15.208 104.537 14.7447 104.532 14.2779C104.53 15.2174 104.891 16.1215 105.539 16.801C106.188 17.4805 107.075 17.8829 108.013 17.9239C107.074 17.9652 106.187 18.3683 105.539 19.0486C104.89 19.729 104.53 20.6339 104.533 21.5739C104.542 21.1068 104.456 20.6428 104.281 20.2097C104.105 19.7767 103.844 19.3835 103.513 19.0539C103.196 18.7113 102.813 18.435 102.388 18.2411C101.963 18.0471 101.504 17.9393 101.037 17.9239ZM104.537 7.12393C105.444 7.09186 106.337 6.88102 107.162 6.5035C107.988 6.12598 108.731 5.5892 109.349 4.92393C109.989 4.27591 110.493 3.50712 110.833 2.6623C111.173 1.81747 111.342 0.913485 111.329 0.00292969C111.316 0.913485 111.485 1.81747 111.825 2.6623C112.165 3.50712 112.669 4.27591 113.309 4.92393C114.566 6.26641 116.302 7.05728 118.14 7.12393C116.921 7.17142 115.736 7.53871 114.704 8.18893C113.673 8.83308 112.822 9.72747 112.229 10.7889C111.63 11.8577 111.32 13.0639 111.329 14.2889C111.342 13.3761 111.174 12.4698 110.834 11.6225C110.494 10.7752 109.989 10.0038 109.349 9.35293C108.735 8.67974 107.993 8.13585 107.166 7.7531C106.339 7.37036 105.444 7.15646 104.533 7.12393H104.537ZM109.518 23.2819C110.896 23.2184 112.196 22.6259 113.148 21.628C114.101 20.63 114.631 19.3033 114.63 17.9239C114.63 19.3009 115.159 20.6252 116.108 21.6224C117.058 22.6196 118.355 23.2131 119.73 23.2799C118.355 23.3467 117.058 23.9402 116.108 24.9374C115.159 25.9346 114.63 27.259 114.63 28.6359C114.641 27.9506 114.515 27.27 114.26 26.6337C114.005 25.9975 113.626 25.4183 113.145 24.9299C112.198 23.9261 110.893 23.3352 109.514 23.2849L109.518 23.2819ZM119.735 16.1709C121.113 16.1071 122.412 15.512 123.361 14.5105C124.309 13.509 124.832 12.1791 124.821 10.7999C124.82 12.1796 125.352 13.5063 126.305 14.504C127.258 15.5017 128.559 16.0934 129.937 16.1559C128.559 16.2185 127.258 16.8102 126.305 17.8078C125.352 18.8055 124.82 20.1323 124.821 21.5119C124.831 20.136 124.307 18.8098 123.358 17.8133C122.409 16.8168 121.11 16.2279 119.735 16.1709Z" fill="#165550"/>
</svg>
